<mxfile host="app.diagrams.net" agent="Mozilla/5.0 (Windows NT 10.0; Win64; x64) AppleWebKit/537.36 (KHTML, like Gecko) Chrome/129.0.0.0 Safari/537.36" version="28.2.3">
  <diagram name="Page-1" id="ZU5ou_c260VMI8BkDugq">
    <mxGraphModel dx="1042" dy="1670" grid="1" gridSize="10" guides="1" tooltips="1" connect="1" arrows="1" fold="1" page="1" pageScale="1" pageWidth="850" pageHeight="1100" math="0" shadow="0">
      <root>
        <mxCell id="0" />
        <mxCell id="1" parent="0" />
        <mxCell id="D5_to-sRCKfcogDpb_UM-4" style="edgeStyle=orthogonalEdgeStyle;rounded=0;orthogonalLoop=1;jettySize=auto;html=1;" edge="1" parent="1" source="D5_to-sRCKfcogDpb_UM-2">
          <mxGeometry relative="1" as="geometry">
            <mxPoint x="330" y="-850" as="targetPoint" />
          </mxGeometry>
        </mxCell>
        <mxCell id="D5_to-sRCKfcogDpb_UM-2" value="start" style="ellipse;whiteSpace=wrap;html=1;" vertex="1" parent="1">
          <mxGeometry x="250" y="-1060" width="160" height="130" as="geometry" />
        </mxCell>
        <mxCell id="D5_to-sRCKfcogDpb_UM-21" style="edgeStyle=orthogonalEdgeStyle;rounded=0;orthogonalLoop=1;jettySize=auto;html=1;" edge="1" parent="1" source="D5_to-sRCKfcogDpb_UM-20" target="D5_to-sRCKfcogDpb_UM-22">
          <mxGeometry relative="1" as="geometry">
            <mxPoint x="330" y="-660" as="targetPoint" />
          </mxGeometry>
        </mxCell>
        <mxCell id="D5_to-sRCKfcogDpb_UM-20" value="liệt kê các công việc cần làm" style="rounded=0;whiteSpace=wrap;html=1;" vertex="1" parent="1">
          <mxGeometry x="245" y="-850" width="170" height="100" as="geometry" />
        </mxCell>
        <mxCell id="D5_to-sRCKfcogDpb_UM-25" value="" style="edgeStyle=orthogonalEdgeStyle;rounded=0;orthogonalLoop=1;jettySize=auto;html=1;" edge="1" parent="1" source="D5_to-sRCKfcogDpb_UM-22" target="D5_to-sRCKfcogDpb_UM-24">
          <mxGeometry relative="1" as="geometry" />
        </mxCell>
        <mxCell id="D5_to-sRCKfcogDpb_UM-22" value="chọn công việc cần làm" style="rounded=0;whiteSpace=wrap;html=1;" vertex="1" parent="1">
          <mxGeometry x="245" y="-690" width="170" height="100" as="geometry" />
        </mxCell>
        <mxCell id="D5_to-sRCKfcogDpb_UM-29" value="" style="edgeStyle=orthogonalEdgeStyle;rounded=0;orthogonalLoop=1;jettySize=auto;html=1;" edge="1" parent="1" source="D5_to-sRCKfcogDpb_UM-24" target="D5_to-sRCKfcogDpb_UM-28">
          <mxGeometry relative="1" as="geometry" />
        </mxCell>
        <mxCell id="D5_to-sRCKfcogDpb_UM-35" style="edgeStyle=orthogonalEdgeStyle;rounded=0;orthogonalLoop=1;jettySize=auto;html=1;" edge="1" parent="1" source="D5_to-sRCKfcogDpb_UM-24">
          <mxGeometry relative="1" as="geometry">
            <mxPoint x="140" y="-450" as="targetPoint" />
          </mxGeometry>
        </mxCell>
        <mxCell id="D5_to-sRCKfcogDpb_UM-24" value="hoàn thành công việc cần đánh dấu" style="rounded=0;whiteSpace=wrap;html=1;" vertex="1" parent="1">
          <mxGeometry x="245" y="-500" width="170" height="100" as="geometry" />
        </mxCell>
        <mxCell id="D5_to-sRCKfcogDpb_UM-31" value="có" style="edgeStyle=orthogonalEdgeStyle;rounded=0;orthogonalLoop=1;jettySize=auto;html=1;" edge="1" parent="1" source="D5_to-sRCKfcogDpb_UM-28" target="D5_to-sRCKfcogDpb_UM-30">
          <mxGeometry relative="1" as="geometry" />
        </mxCell>
        <mxCell id="D5_to-sRCKfcogDpb_UM-33" value="không" style="edgeStyle=orthogonalEdgeStyle;rounded=0;orthogonalLoop=1;jettySize=auto;html=1;" edge="1" parent="1" source="D5_to-sRCKfcogDpb_UM-28" target="D5_to-sRCKfcogDpb_UM-32">
          <mxGeometry relative="1" as="geometry" />
        </mxCell>
        <mxCell id="D5_to-sRCKfcogDpb_UM-28" value="check" style="rhombus;whiteSpace=wrap;html=1;rounded=0;" vertex="1" parent="1">
          <mxGeometry x="275" y="-320" width="110" height="100" as="geometry" />
        </mxCell>
        <mxCell id="D5_to-sRCKfcogDpb_UM-34" style="edgeStyle=orthogonalEdgeStyle;rounded=0;orthogonalLoop=1;jettySize=auto;html=1;" edge="1" parent="1" source="D5_to-sRCKfcogDpb_UM-30">
          <mxGeometry relative="1" as="geometry">
            <mxPoint x="140" y="-450" as="targetPoint" />
          </mxGeometry>
        </mxCell>
        <mxCell id="D5_to-sRCKfcogDpb_UM-30" value="làm tiếp" style="whiteSpace=wrap;html=1;rounded=0;" vertex="1" parent="1">
          <mxGeometry x="80" y="-300" width="120" height="60" as="geometry" />
        </mxCell>
        <mxCell id="D5_to-sRCKfcogDpb_UM-37" value="" style="edgeStyle=orthogonalEdgeStyle;rounded=0;orthogonalLoop=1;jettySize=auto;html=1;" edge="1" parent="1" source="D5_to-sRCKfcogDpb_UM-32">
          <mxGeometry relative="1" as="geometry">
            <mxPoint x="520" y="-120" as="targetPoint" />
          </mxGeometry>
        </mxCell>
        <mxCell id="D5_to-sRCKfcogDpb_UM-32" value="kết thúc" style="whiteSpace=wrap;html=1;rounded=0;" vertex="1" parent="1">
          <mxGeometry x="460" y="-300" width="120" height="60" as="geometry" />
        </mxCell>
        <mxCell id="D5_to-sRCKfcogDpb_UM-39" style="edgeStyle=orthogonalEdgeStyle;rounded=0;orthogonalLoop=1;jettySize=auto;html=1;" edge="1" parent="1" source="D5_to-sRCKfcogDpb_UM-38">
          <mxGeometry relative="1" as="geometry">
            <mxPoint x="520" y="-120" as="targetPoint" />
          </mxGeometry>
        </mxCell>
        <mxCell id="D5_to-sRCKfcogDpb_UM-38" value="end" style="ellipse;whiteSpace=wrap;html=1;" vertex="1" parent="1">
          <mxGeometry x="225" y="-180" width="185" height="120" as="geometry" />
        </mxCell>
      </root>
    </mxGraphModel>
  </diagram>
</mxfile>
